<svg width="24" height="23" viewBox="0 0 24 23" fill="none" xmlns="http://www.w3.org/2000/svg">
<path d="M18.1919 8.93788C18.1919 13.8741 14.1195 17.8758 9.09596 17.8758C4.0724 17.8758 0 13.8741 0 8.93788C0 4.00163 4.0724 0 9.09596 0C14.1195 0 18.1919 4.00163 18.1919 8.93788ZM3.66396 8.93788C3.66396 11.8858 6.09595 14.2755 9.09596 14.2755C12.096 14.2755 14.528 11.8858 14.528 8.93788C14.528 5.99001 12.096 3.60029 9.09596 3.60029C6.09595 3.60029 3.66396 5.99001 3.66396 8.93788Z" fill="black"/>
<path d="M14.6347 16.1331C13.9783 15.4881 13.9783 14.4424 14.6347 13.7975C15.2911 13.1525 16.3553 13.1525 17.0117 13.7975L23.5077 20.1806C24.1641 20.8256 24.1641 21.8713 23.5077 22.5163C22.8513 23.1612 21.7871 23.1612 21.1307 22.5163L14.6347 16.1331Z" fill="black"/>
</svg>
